<?xml version="1.0" encoding="UTF-8" standalone="no"?>
<svg width="438px" height="110px" viewBox="0 0 438 110" version="1.1" xmlns="http://www.w3.org/2000/svg" xmlns:xlink="http://www.w3.org/1999/xlink">
    <!-- Generator: Sketch 3.6.1 (26313) - http://www.bohemiancoding.com/sketch -->
    <title>logo</title>
    <desc>Created with Sketch.</desc>
    <defs>
        <path id="path-1" d="M0.46,0.037 L0.552,0.037 L7.906,9.137 L15.212,0.037 L15.326,0.037 L15.326,15.983 L13.901,15.983 L13.901,3.714 L7.906,11.249 L7.814,11.249 L1.885,3.714 L1.885,15.983 L0.46,15.983 L0.46,0.037 L0.46,0.037 Z"></path>
        <path id="path-3" d="M0.405,15.983 L1.921,15.983 L1.921,0.359 L0.405,0.359 L0.405,15.983 L0.405,15.983 Z"></path>
        <path id="path-5" d="M0.131,8.171 C0.131,3.53 3.601,0.175 8.036,0.175 C10.677,0.175 12.768,1.256 14.169,3.092 L13.02,3.921 C11.849,2.405 10.194,1.531 8.012,1.531 C4.381,1.531 1.693,4.38 1.693,8.171 C1.693,12.008 4.428,14.811 8.127,14.811 C10.378,14.811 12.194,13.869 13.435,12.214 L14.606,13.041 C13.067,15.063 10.885,16.166 8.08,16.166 C3.601,16.166 0.107,12.812 0.131,8.171 L0.131,8.171 Z"></path>
        <path id="path-7" d="M10.369,0.359 L11.862,0.359 L11.862,15.983 L10.369,15.983 L10.369,10.836 L1.846,10.836 L1.846,15.983 L0.352,15.983 L0.352,0.359 L1.846,0.359 L1.846,9.504 L10.369,9.504 L10.369,0.359 L10.369,0.359 Z"></path>
        <path id="path-9" d="M0.071,15.983 L1.588,15.983 L1.588,0.359 L0.071,0.359 L0.071,15.983 L0.071,15.983 Z"></path>
        <path id="path-11" d="M0.832,8.171 C0.832,3.553 4.371,0.175 8.759,0.175 C11.493,0.175 13.308,1.14 14.641,2.611 L13.585,3.599 C12.504,2.405 11.125,1.531 8.713,1.531 C5.082,1.531 2.395,4.38 2.395,8.171 C2.395,11.962 5.129,14.811 8.988,14.811 C11.286,14.811 12.733,14.145 13.744,13.294 L13.744,10.836 L9.034,10.836 L9.034,9.504 L15.169,9.504 L15.169,13.984 C13.744,15.246 11.929,16.166 8.988,16.166 C4.416,16.166 0.832,12.788 0.832,8.171 L0.832,8.171 Z"></path>
        <path d="M6.679,4.278 L3.164,12.939 L10.147,12.939 C10.172,12.939 6.679,4.278 6.679,4.278 L6.679,4.278 Z M1.532,16.983 L0.038,16.983 L6.61,0.992 L6.726,0.992 L13.319,16.983 L11.779,16.983 L10.7,14.271 L2.636,14.271 L1.532,16.983 L1.532,16.983 Z" id="path-13"></path>
        <path id="path-15" d="M2.269,3.691 L2.269,15.983 L0.867,15.983 L0.867,0.037 L1.005,0.037 L11.527,12.651 L11.527,0.359 L12.93,0.359 L12.93,16.304 L12.791,16.304 L2.269,3.691 L2.269,3.691 Z"></path>
        <path id="path-17" d="M0.611,0.037 L0.703,0.037 L8.055,9.137 L15.361,0.037 L15.476,0.037 L15.476,15.983 L14.052,15.983 L14.052,3.714 L8.055,11.249 L7.963,11.249 L2.035,3.714 L2.035,15.983 L0.611,15.983 L0.611,0.037 L0.611,0.037 Z"></path>
        <path d="M6.675,4.278 L3.16,12.939 L10.144,12.939 C10.168,12.939 6.675,4.278 6.675,4.278 L6.675,4.278 Z M1.528,16.983 L0.035,16.983 L6.606,0.992 L6.722,0.992 L13.315,16.983 L11.775,16.983 L10.696,14.271 L2.632,14.271 L1.528,16.983 L1.528,16.983 Z" id="path-19"></path>
        <path d="M4.172,10.767 C7.733,10.767 9.157,8.86 9.157,6.24 C9.157,3.622 7.711,1.692 4.172,1.692 L2.356,1.692 L2.356,10.767 L4.172,10.767 L4.172,10.767 Z M10.467,15.983 L8.652,15.983 L5.55,11.986 C5.137,12.054 4.723,12.077 4.264,12.077 L2.356,12.077 L2.356,15.983 L0.863,15.983 L0.863,0.359 L4.264,0.359 C8.515,0.359 10.72,2.864 10.72,6.24 C10.72,8.745 9.479,10.789 7.066,11.639 L10.467,15.983 L10.467,15.983 Z" id="path-21"></path>
        <path id="path-23" d="M1.767,12.353 C2.595,13.913 4.02,14.811 5.857,14.811 C7.994,14.811 9.257,13.754 9.257,12.122 C9.257,10.399 8.201,9.617 6.316,8.745 L5.053,8.148 C2.802,7.09 1.445,6.08 1.445,3.898 C1.445,1.669 3.169,0.175 5.466,0.175 C7.419,0.175 8.775,0.909 9.739,2.473 L8.591,3.207 C7.878,2.036 6.914,1.484 5.489,1.484 C3.95,1.484 2.916,2.473 2.916,3.85 C2.916,5.346 3.767,5.897 5.674,6.791 L6.937,7.389 C9.442,8.584 10.751,9.732 10.751,12.077 C10.751,14.65 8.798,16.166 5.881,16.166 C3.329,16.166 1.516,14.926 0.504,13.019 L1.767,12.353 L1.767,12.353 Z"></path>
        <path d="M3.893,10.767 C7.454,10.767 8.879,8.86 8.879,6.24 C8.879,3.622 7.432,1.692 3.893,1.692 L2.077,1.692 L2.077,10.767 L3.893,10.767 L3.893,10.767 Z M10.188,15.983 L8.374,15.983 L5.271,11.986 C4.858,12.054 4.444,12.077 3.984,12.077 L2.077,12.077 L2.077,15.983 L0.585,15.983 L0.585,0.359 L3.984,0.359 C8.236,0.359 10.441,2.864 10.441,6.24 C10.441,8.745 9.2,10.789 6.788,11.639 L10.188,15.983 L10.188,15.983 Z" id="path-25"></path>
        <path d="M15.214,8.171 C15.214,4.38 12.48,1.531 8.759,1.531 C5.036,1.531 2.303,4.38 2.303,8.171 C2.303,11.962 5.036,14.811 8.759,14.811 C12.48,14.811 15.214,11.962 15.214,8.171 L15.214,8.171 Z M0.741,8.171 C0.741,3.553 4.324,0.175 8.759,0.175 C13.192,0.175 16.777,3.553 16.777,8.171 C16.777,12.788 13.192,16.166 8.759,16.166 C4.324,16.166 0.741,12.788 0.741,8.171 L0.741,8.171 Z" id="path-27"></path>
        <path id="path-29" d="M0.654,0.359 L2.264,0.359 L7.317,12.927 L12.396,0.359 L13.936,0.359 L7.342,16.304 L7.248,16.304 L0.654,0.359 L0.654,0.359 Z"></path>
        <path id="path-31" d="M0.483,0.359 L9.902,0.359 L9.902,1.692 L1.976,1.692 L1.976,9.504 L9.053,9.504 L9.053,10.813 L1.976,10.813 L1.976,14.65 L10.224,14.65 L10.224,15.983 L0.483,15.983 L0.483,0.359 L0.483,0.359 Z"></path>
        <path d="M3.311,10.767 C6.872,10.767 8.296,8.86 8.296,6.24 C8.296,3.622 6.85,1.692 3.311,1.692 L1.495,1.692 L1.495,10.767 L3.311,10.767 L3.311,10.767 Z M9.605,15.983 L7.791,15.983 L4.689,11.986 C4.276,12.054 3.861,12.077 3.402,12.077 L1.495,12.077 L1.495,15.983 L0.002,15.983 L0.002,0.359 L3.402,0.359 C7.653,0.359 9.858,2.864 9.858,6.24 C9.858,8.745 8.617,10.789 6.205,11.639 L9.605,15.983 L9.605,15.983 Z" id="path-33"></path>
        <path id="path-35" d="M5.206,1.692 L0.358,1.692 L0.358,0.359 L11.523,0.359 L11.523,1.692 L6.699,1.692 L6.699,15.983 L5.206,15.983 L5.206,1.692 L5.206,1.692 Z"></path>
        <path id="path-37" d="M0.006,0.359 L9.425,0.359 L9.425,1.692 L1.498,1.692 L1.498,9.504 L8.575,9.504 L8.575,10.813 L1.498,10.813 L1.498,14.65 L9.746,14.65 L9.746,15.983 L0.006,15.983 L0.006,0.359 L0.006,0.359 Z"></path>
        <path d="M7.513,4.278 L3.999,12.939 L10.982,12.939 C11.006,12.939 7.513,4.278 7.513,4.278 L7.513,4.278 Z M2.367,16.983 L0.873,16.983 L7.444,0.992 L7.561,0.992 L14.152,16.983 L12.614,16.983 L11.534,14.271 L3.47,14.271 L2.367,16.983 L2.367,16.983 Z" id="path-39"></path>
        <path id="path-41" d="M0.703,0.037 L0.795,0.037 L8.147,9.137 L15.453,0.037 L15.567,0.037 L15.567,15.983 L14.145,15.983 L14.145,3.714 L8.147,11.249 L8.056,11.249 L2.128,3.714 L2.128,15.983 L0.703,15.983 L0.703,0.037 L0.703,0.037 Z"></path>
        <path id="path-69" d="M0.46,2 L437.7,2 L437.7,0 L0.46,0 L0.46,2 L0.46,2 Z"></path>
    </defs>
    <g id="Page-1" stroke="none" stroke-width="1" fill="none" fill-rule="evenodd">
        <g id="mrover_logo">
            <g id="Group-3" transform="translate(0.000000, 93.000000)">
                <mask id="mask-2" fill="white">
                    <use xlink:href="#path-1"></use>
                </mask>
                <g id="Clip-2"></g>
                <path d="M0.36,16.04 L15.36,16.04 L15.36,-0.04 L0.36,-0.04 L0.36,16.04 Z" id="Fill-1" fill="#FFFFFF" mask="url(#mask-2)"></path>
            </g>
            <g id="Group-6" transform="translate(24.000000, 93.000000)">
                <mask id="mask-4" fill="white">
                    <use xlink:href="#path-3"></use>
                </mask>
                <g id="Clip-5"></g>
                <path d="M0.36,16.04 L2.04,16.04 L2.04,0.32 L0.36,0.32 L0.36,16.04 Z" id="Fill-4" fill="#FFFFFF" mask="url(#mask-4)"></path>
            </g>
            <g id="Group-9" transform="translate(33.000000, 93.000000)">
                <mask id="mask-6" fill="white">
                    <use xlink:href="#path-5"></use>
                </mask>
                <g id="Clip-8"></g>
                <path d="M0.12,16.28 L14.64,16.28 L14.64,0.08 L0.12,0.08 L0.12,16.28 Z" id="Fill-7" fill="#FFFFFF" mask="url(#mask-6)"></path>
            </g>
            <g id="Group-12" transform="translate(56.000000, 93.000000)">
                <mask id="mask-8" fill="white">
                    <use xlink:href="#path-7"></use>
                </mask>
                <g id="Clip-11"></g>
                <path d="M0.28,16.04 L11.92,16.04 L11.92,0.32 L0.28,0.32 L0.28,16.04 Z" id="Fill-10" fill="#FFFFFF" mask="url(#mask-8)"></path>
            </g>
            <g id="Group-15" transform="translate(78.000000, 93.000000)">
                <mask id="mask-10" fill="white">
                    <use xlink:href="#path-9"></use>
                </mask>
                <g id="Clip-14"></g>
                <path d="M0,16.04 L1.68,16.04 L1.68,0.32 L0,0.32 L0,16.04 Z" id="Fill-13" fill="#FFFFFF" mask="url(#mask-10)"></path>
            </g>
            <g id="Group-18" transform="translate(88.000000, 93.000000)">
                <mask id="mask-12" fill="white">
                    <use xlink:href="#path-11"></use>
                </mask>
                <g id="Clip-17"></g>
                <path d="M0.8,16.28 L15.2,16.28 L15.2,0.08 L0.8,0.08 L0.8,16.28 Z" id="Fill-16" fill="#FFFFFF" mask="url(#mask-12)"></path>
            </g>
            <g id="Group-21" transform="translate(112.000000, 92.000000)">
                <mask id="mask-14" fill="white">
                    <use xlink:href="#path-13"></use>
                </mask>
                <g id="Clip-20"></g>
                <path d="M-0.04,17.04 L13.4,17.04 L13.4,0.96 L-0.04,0.96 L-0.04,17.04 Z" id="Fill-19" fill="#FFFFFF" mask="url(#mask-14)"></path>
            </g>
            <g id="Group-24" transform="translate(133.000000, 93.000000)">
                <mask id="mask-16" fill="white">
                    <use xlink:href="#path-15"></use>
                </mask>
                <g id="Clip-23"></g>
                <path d="M0.8,16.4 L13.04,16.4 L13.04,-0.04 L0.8,-0.04 L0.8,16.4 Z" id="Fill-22" fill="#FFFFFF" mask="url(#mask-16)"></path>
            </g>
            <g id="Group-27" transform="translate(167.000000, 93.000000)">
                <mask id="mask-18" fill="white">
                    <use xlink:href="#path-17"></use>
                </mask>
                <g id="Clip-26"></g>
                <path d="M0.52,16.04 L15.52,16.04 L15.52,-0.04 L0.52,-0.04 L0.52,16.04 Z" id="Fill-25" fill="#FFFFFF" mask="url(#mask-18)"></path>
            </g>
            <g id="Group-30" transform="translate(190.000000, 92.000000)">
                <mask id="mask-20" fill="white">
                    <use xlink:href="#path-19"></use>
                </mask>
                <g id="Clip-29"></g>
                <path d="M-0.04,17.04 L13.4,17.04 L13.4,0.96 L-0.04,0.96 L-0.04,17.04 Z" id="Fill-28" fill="#FFFFFF" mask="url(#mask-20)"></path>
            </g>
            <g id="Group-33" transform="translate(211.000000, 93.000000)">
                <mask id="mask-22" fill="white">
                    <use xlink:href="#path-21"></use>
                </mask>
                <g id="Clip-32"></g>
                <path d="M0.8,16.04 L10.76,16.04 L10.76,0.32 L0.8,0.32 L0.8,16.04 Z" id="Fill-31" fill="#FFFFFF" mask="url(#mask-22)"></path>
            </g>
            <g id="Group-36" transform="translate(228.000000, 93.000000)">
                <mask id="mask-24" fill="white">
                    <use xlink:href="#path-23"></use>
                </mask>
                <g id="Clip-35"></g>
                <path d="M0.48,16.28 L10.8,16.28 L10.8,0.08 L0.48,0.08 L0.48,16.28 Z" id="Fill-34" fill="#FFFFFF" mask="url(#mask-24)"></path>
            </g>
            <g id="Group-39" transform="translate(257.000000, 93.000000)">
                <mask id="mask-26" fill="white">
                    <use xlink:href="#path-25"></use>
                </mask>
                <g id="Clip-38"></g>
                <path d="M0.52,16.04 L10.48,16.04 L10.48,0.32 L0.52,0.32 L0.52,16.04 Z" id="Fill-37" fill="#FFFFFF" mask="url(#mask-26)"></path>
            </g>
            <g id="Group-42" transform="translate(274.000000, 93.000000)">
                <mask id="mask-28" fill="white">
                    <use xlink:href="#path-27"></use>
                </mask>
                <g id="Clip-41"></g>
                <path d="M0.68,16.28 L16.88,16.28 L16.88,0.08 L0.68,0.08 L0.68,16.28 Z" id="Fill-40" fill="#FFFFFF" mask="url(#mask-28)"></path>
            </g>
            <g id="Group-45" transform="translate(295.000000, 93.000000)">
                <mask id="mask-30" fill="white">
                    <use xlink:href="#path-29"></use>
                </mask>
                <g id="Clip-44"></g>
                <path d="M0.56,16.4 L14,16.4 L14,0.32 L0.56,0.32 L0.56,16.4 Z" id="Fill-43" fill="#FFFFFF" mask="url(#mask-30)"></path>
            </g>
            <g id="Group-48" transform="translate(317.000000, 93.000000)">
                <mask id="mask-32" fill="white">
                    <use xlink:href="#path-31"></use>
                </mask>
                <g id="Clip-47"></g>
                <path d="M0.4,16.04 L10.24,16.04 L10.24,0.32 L0.4,0.32 L0.4,16.04 Z" id="Fill-46" fill="#FFFFFF" mask="url(#mask-32)"></path>
            </g>
            <g id="Group-51" transform="translate(336.000000, 93.000000)">
                <mask id="mask-34" fill="white">
                    <use xlink:href="#path-33"></use>
                </mask>
                <g id="Clip-50"></g>
                <path d="M0,16.04 L9.96,16.04 L9.96,0.32 L0,0.32 L0,16.04 Z" id="Fill-49" fill="#FFFFFF" mask="url(#mask-34)"></path>
            </g>
            <g id="Group-54" transform="translate(365.000000, 93.000000)">
                <mask id="mask-36" fill="white">
                    <use xlink:href="#path-35"></use>
                </mask>
                <g id="Clip-53"></g>
                <path d="M0.28,16.04 L11.56,16.04 L11.56,0.32 L0.28,0.32 L0.28,16.04 Z" id="Fill-52" fill="#FFFFFF" mask="url(#mask-36)"></path>
            </g>
            <g id="Group-57" transform="translate(384.000000, 93.000000)">
                <mask id="mask-38" fill="white">
                    <use xlink:href="#path-37"></use>
                </mask>
                <g id="Clip-56"></g>
                <path d="M0,16.04 L9.84,16.04 L9.84,0.32 L0,0.32 L0,16.04 Z" id="Fill-55" fill="#FFFFFF" mask="url(#mask-38)"></path>
            </g>
            <g id="Group-60" transform="translate(401.000000, 92.000000)">
                <mask id="mask-40" fill="white">
                    <use xlink:href="#path-39"></use>
                </mask>
                <g id="Clip-59"></g>
                <path d="M0.76,17.04 L14.2,17.04 L14.2,0.96 L0.76,0.96 L0.76,17.04 Z" id="Fill-58" fill="#FFFFFF" mask="url(#mask-40)"></path>
            </g>
            <g id="Group-63" transform="translate(422.000000, 93.000000)">
                <mask id="mask-42" fill="white">
                    <use xlink:href="#path-41"></use>
                </mask>
                <g id="Clip-62"></g>
                <path d="M0.64,16.04 L15.64,16.04 L15.64,-0.04 L0.64,-0.04 L0.64,16.04 Z" id="Fill-61" fill="#FFFFFF" mask="url(#mask-42)"></path>
            </g>
            <g id="Group-66" transform="translate(151.000000, 0.000000)">
                <mask id="mask-44" fill="white">
                    <use xlink:href="#path-43"></use>
                </mask>
                <g id="Clip-65"></g>
                <path d="M-0.04,52.16 L82.64,52.16 L82.64,0.32 L-0.04,0.32 L-0.04,52.16 Z" id="Fill-64" fill="#FFFFFF" mask="url(#mask-44)"></path>
            </g>
            <g id="Group-69" transform="translate(235.000000, 1.000000)">
                <mask id="mask-46" fill="white">
                    <use xlink:href="#path-45"></use>
                </mask>
                <g id="Clip-68"></g>
                <path d="M0.2,40.36 L29.84,40.36 L29.84,0.4 L0.2,0.4 L0.2,40.36 Z" id="Fill-67" fill="#FFFFFF" mask="url(#mask-46)"></path>
            </g>
            <g id="Group-72" transform="translate(316.000000, 1.000000)">
                <mask id="mask-48" fill="white">
                    <use xlink:href="#path-47"></use>
                </mask>
                <g id="Clip-71"></g>
                <path d="M0.2,34.84 L51.2,34.84 L51.2,0.4 L0.2,0.4 L0.2,34.84 Z" id="Fill-70" fill="#FFFFFF" mask="url(#mask-48)"></path>
            </g>
            <g id="Group-75" transform="translate(278.000000, 1.000000)">
                <mask id="mask-50" fill="white">
                    <use xlink:href="#path-49"></use>
                </mask>
                <g id="Clip-74"></g>
                <path d="M0.4,37.96 L28.12,37.96 L28.12,0.4 L0.4,0.4 L0.4,37.96 Z" id="Fill-73" fill="#FFFFFF" mask="url(#mask-50)"></path>
            </g>
            <g id="Group-78" transform="translate(382.000000, 1.000000)">
                <mask id="mask-52" fill="white">
                    <use xlink:href="#path-51"></use>
                </mask>
                <g id="Clip-77"></g>
                <path d="M0.08,30.4 L54.68,30.4 L54.68,0.4 L0.08,0.4 L0.08,30.4 Z" id="Fill-76" fill="#FFFFFF" mask="url(#mask-52)"></path>
            </g>
            <g id="Group-81" transform="translate(153.000000, 50.000000)">
                <mask id="mask-54" fill="white">
                    <use xlink:href="#path-53"></use>
                </mask>
                <g id="Clip-80"></g>
                <path d="M0.84,32.64 L79.8,32.64 L79.8,0 L0.84,0 L0.84,32.64 Z" id="Fill-79" fill="#FFFFFF" mask="url(#mask-54)"></path>
            </g>
            <g id="Group-84" transform="translate(316.000000, 43.000000)">
                <mask id="mask-56" fill="white">
                    <use xlink:href="#path-55"></use>
                </mask>
                <g id="Clip-83"></g>
                <path d="M0.2,38.68 L52.88,38.68 L52.88,0.52 L0.2,0.52 L0.2,38.68 Z" id="Fill-82" fill="#FFFFFF" mask="url(#mask-56)"></path>
            </g>
            <g id="Group-87" transform="translate(255.000000, 46.000000)">
                <mask id="mask-58" fill="white">
                    <use xlink:href="#path-57"></use>
                </mask>
                <g id="Clip-86"></g>
                <path d="M0.6,36.52 L32.28,36.52 L32.28,0.28 L0.6,0.28 L0.6,36.52 Z" id="Fill-85" fill="#FFFFFF" mask="url(#mask-58)"></path>
            </g>
            <g id="Group-90" transform="translate(382.000000, 39.000000)">
                <mask id="mask-60" fill="white">
                    <use xlink:href="#path-59"></use>
                </mask>
                <g id="Clip-89"></g>
                <path d="M0.08,42.68 L55.64,42.68 L55.64,0.32 L0.08,0.32 L0.08,42.68 Z" id="Fill-88" fill="#FFFFFF" mask="url(#mask-60)"></path>
            </g>
            <g id="Group-93" transform="translate(113.000000, 59.000000)">
                <mask id="mask-62" fill="white">
                    <use xlink:href="#path-61"></use>
                </mask>
                <g id="Clip-92"></g>
                <path d="M0.52,22.68 L28.84,22.68 L28.84,0.72 L0.52,0.72 L0.52,22.68 Z" id="Fill-91" fill="#FFFFFF" mask="url(#mask-62)"></path>
            </g>
            <g id="Group-96" transform="translate(86.000000, 62.000000)">
                <mask id="mask-64" fill="white">
                    <use xlink:href="#path-63"></use>
                </mask>
                <g id="Clip-95"></g>
                <path d="M0.28,19.68 L12.88,19.68 L12.88,0.84 L0.28,0.84 L0.28,19.68 Z" id="Fill-94" fill="#FFFFFF" mask="url(#mask-64)"></path>
            </g>
            <g id="Group-99" transform="translate(86.000000, 1.000000)">
                <mask id="mask-66" fill="white">
                    <use xlink:href="#path-65"></use>
                </mask>
                <g id="Clip-98"></g>
                <path d="M0.28,59.8 L54.88,59.8 L54.88,0.4 L0.28,0.4 L0.28,59.8 Z" id="Fill-97" fill="#FFFFFF" mask="url(#mask-66)"></path>
            </g>
            <g id="Group-102" transform="translate(0.000000, 1.000000)">
                <mask id="mask-68" fill="white">
                    <use xlink:href="#path-67"></use>
                </mask>
                <g id="Clip-101"></g>
                <path d="M0.36,80.68 L75.12,80.68 L75.12,0.52 L0.36,0.52 L0.36,80.68 Z" id="Fill-100" fill="#FBC421" mask="url(#mask-68)"></path>
            </g>
            <g id="Group-105" transform="translate(0.000000, 87.000000)">
                <mask id="mask-70" fill="white">
                    <use xlink:href="#path-69"></use>
                </mask>
                <g id="Clip-104"></g>
                <path d="M0.36,2 L437.76,2 L437.76,-0.04 L0.36,-0.04 L0.36,2 Z" id="Fill-103" fill="#FFFFFF" mask="url(#mask-70)"></path>
            </g>
        </g>
    </g>
</svg>