<?xml version="1.0" encoding="UTF-8" standalone="no"?>
<svg width="438px" height="90px" viewBox="0 0 438 90" version="1.1" xmlns="http://www.w3.org/2000/svg" xmlns:xlink="http://www.w3.org/1999/xlink">
    <!-- Generator: Sketch 3.6.1 (26313) - http://www.bohemiancoding.com/sketch -->
    <title>logo</title>
    <desc>Created with Sketch.</desc>
    <defs>
        <path id="path-43" d="M13.976,50.584 C13.196,47.752 12.78,44.719 12.78,41.537 C12.78,24.46 24.675,11.623 41.398,11.623 C58.121,11.623 69.897,24.46 69.897,41.537 C69.897,42.506 69.85,43.459 69.774,44.399 C74.073,43.956 78.344,43.523 82.579,43.1 C82.598,42.581 82.617,42.063 82.617,41.537 C82.617,17.631 64.245,0.436 41.398,0.436 C18.435,0.436 0.063,17.631 0.063,41.537 C0.063,45.233 0.504,48.768 1.332,52.105 C5.569,51.589 9.785,51.081 13.976,50.584 L13.976,50.584 Z"></path>
        <path id="path-45" d="M29.816,39.121 L13.626,0.497 L0.318,0.497 L17.565,40.259 C21.683,39.869 25.766,39.492 29.816,39.121 L29.816,39.121 Z"></path>
        <path id="path-47" d="M12.726,33.855 L12.726,11.449 L51.118,11.449 L51.118,0.497 L0.242,0.497 L0.242,34.796 C4.452,34.47 8.61,34.158 12.726,33.855 L12.726,33.855 Z"></path>
        <path id="path-49" d="M12.75,36.85 L28.096,0.497 L15.967,0.497 L0.492,37.9 C4.616,37.54 8.702,37.191 12.75,36.85 L12.75,36.85 Z"></path>
        <path id="path-51" d="M12.645,29.606 L12.645,11.449 L19.71,11.449 C34.351,11.449 41.063,17.522 41.88,28.124 C46.219,27.922 50.447,27.736 54.565,27.561 C53.332,10.86 41.15,0.497 20.181,0.497 L0.16,0.497 L0.16,30.317 C4.396,30.068 8.557,29.832 12.645,29.606 L12.645,29.606 Z"></path>
        <path id="path-53" d="M66.541,1.128 C63.011,13.194 52.802,21.451 39.398,21.451 C27.769,21.451 18.487,15.233 13.903,5.707 C9.563,6.119 5.219,6.54 0.875,6.97 C6.856,22.496 21.768,32.637 39.398,32.637 C59.413,32.637 75.993,19.44 79.795,0.096 C75.393,0.43 70.973,0.775 66.541,1.128 L66.541,1.128 Z"></path>
        <path id="path-55" d="M12.726,11.257 L46.761,11.257 L46.761,0.538 L19.785,0.538 C13.359,0.873 6.841,1.226 0.242,1.597 L0.242,38.576 L52.766,38.576 L52.766,27.625 L12.726,27.625 L12.726,11.257 L12.726,11.257 Z"></path>
        <path id="path-57" d="M20.099,1.102 C18.093,6.347 16.474,12.731 16.474,12.731 C16.474,12.731 14.8,6.68 12.895,1.583 C8.839,1.855 4.767,2.135 0.674,2.422 L15.412,36.402 L16.944,36.402 L32.172,0.327 C28.17,0.579 24.145,0.838 20.099,1.102 L20.099,1.102 Z"></path>
        <path id="path-59" d="M53.795,0.346 C49.486,0.484 45.068,0.631 40.547,0.787 C37.902,7.492 31.387,11.251 19.71,11.251 L12.645,11.251 L12.645,1.828 C8.545,1.993 4.383,2.164 0.16,2.344 L0.16,42.576 L12.645,42.576 L12.645,21.969 L20.181,21.969 C22.419,21.969 24.657,21.733 26.894,21.497 L41.262,42.576 L55.629,42.576 L38.671,17.846 C46.73,14.315 51.853,8.475 53.795,0.346 L53.795,0.346 Z"></path>
        <path id="path-61" d="M0.562,2.243 L14.421,22.576 L28.789,22.576 L13.836,0.771 C9.407,1.251 4.982,1.742 0.562,2.243 L0.562,2.243 Z"></path>
        <path id="path-63" d="M0.32,2.475 L0.32,19.576 L12.804,19.576 L12.804,0.955 C8.634,1.451 4.473,1.959 0.32,2.475 L0.32,2.475 Z"></path>
        <path d="M12.804,11.449 L19.87,11.449 C35.533,11.449 42.127,18.397 42.127,30.409 C42.127,42.304 35.768,49.251 19.87,49.251 L12.804,49.251 L12.804,11.449 L12.804,11.449 Z M42.176,54.138 C50.48,49.284 54.847,41.38 54.847,30.409 C54.847,12.037 42.481,0.497 20.341,0.497 L0.32,0.497 L0.32,59.784 C14.474,57.789 28.432,55.91 42.176,54.138 L42.176,54.138 Z" id="path-65"></path>
        <path d="M75.046,65.683 L75.046,80.576 L74.521,80.576 L74.521,80.55 L63.455,80.55 L63.455,67.312 L75.046,65.683 L75.046,65.683 Z M75.046,61.846 L75.046,0.576 L74.474,0.576 L37.82,46.23 L0.926,0.576 L0.464,0.576 L0.464,72.328 L12.056,70.699 L12.056,27.761 L37.417,61.513 L37.811,61.513 L63.455,27.761 L63.455,63.475 L75.046,61.846 L75.046,61.846 Z M0.464,76.165 L0.464,80.55 L12.056,80.55 L12.056,74.536 L0.464,76.165 L0.464,76.165 Z" id="path-67"></path>
    </defs>
    <g id="Page-1" stroke="none" stroke-width="1" fill="none" fill-rule="evenodd">
        <g id="mrover_logo">
            <g id="Group-3" transform="translate(0.000000, 93.000000)">
                <mask id="mask-2" fill="white">
                    <use xlink:href="#path-1"></use>
                </mask>
                <g id="Clip-2"></g>
                <path d="M0.36,16.04 L15.36,16.04 L15.36,-0.04 L0.36,-0.04 L0.36,16.04 Z" id="Fill-1" fill="#FFFFFF" mask="url(#mask-2)"></path>
            </g>
            <g id="Group-6" transform="translate(24.000000, 93.000000)">
                <mask id="mask-4" fill="white">
                    <use xlink:href="#path-3"></use>
                </mask>
                <g id="Clip-5"></g>
                <path d="M0.36,16.04 L2.04,16.04 L2.04,0.32 L0.36,0.32 L0.36,16.04 Z" id="Fill-4" fill="#FFFFFF" mask="url(#mask-4)"></path>
            </g>
            <g id="Group-9" transform="translate(33.000000, 93.000000)">
                <mask id="mask-6" fill="white">
                    <use xlink:href="#path-5"></use>
                </mask>
                <g id="Clip-8"></g>
                <path d="M0.12,16.28 L14.64,16.28 L14.64,0.08 L0.12,0.08 L0.12,16.28 Z" id="Fill-7" fill="#FFFFFF" mask="url(#mask-6)"></path>
            </g>
            <g id="Group-12" transform="translate(56.000000, 93.000000)">
                <mask id="mask-8" fill="white">
                    <use xlink:href="#path-7"></use>
                </mask>
                <g id="Clip-11"></g>
                <path d="M0.28,16.04 L11.92,16.04 L11.92,0.32 L0.28,0.32 L0.28,16.04 Z" id="Fill-10" fill="#FFFFFF" mask="url(#mask-8)"></path>
            </g>
            <g id="Group-15" transform="translate(78.000000, 93.000000)">
                <mask id="mask-10" fill="white">
                    <use xlink:href="#path-9"></use>
                </mask>
                <g id="Clip-14"></g>
                <path d="M0,16.04 L1.68,16.04 L1.68,0.32 L0,0.32 L0,16.04 Z" id="Fill-13" fill="#FFFFFF" mask="url(#mask-10)"></path>
            </g>
            <g id="Group-18" transform="translate(88.000000, 93.000000)">
                <mask id="mask-12" fill="white">
                    <use xlink:href="#path-11"></use>
                </mask>
                <g id="Clip-17"></g>
                <path d="M0.8,16.28 L15.2,16.28 L15.2,0.08 L0.8,0.08 L0.8,16.28 Z" id="Fill-16" fill="#FFFFFF" mask="url(#mask-12)"></path>
            </g>
            <g id="Group-21" transform="translate(112.000000, 92.000000)">
                <mask id="mask-14" fill="white">
                    <use xlink:href="#path-13"></use>
                </mask>
                <g id="Clip-20"></g>
                <path d="M-0.04,17.04 L13.4,17.04 L13.4,0.96 L-0.04,0.96 L-0.04,17.04 Z" id="Fill-19" fill="#FFFFFF" mask="url(#mask-14)"></path>
            </g>
            <g id="Group-24" transform="translate(133.000000, 93.000000)">
                <mask id="mask-16" fill="white">
                    <use xlink:href="#path-15"></use>
                </mask>
                <g id="Clip-23"></g>
                <path d="M0.8,16.4 L13.04,16.4 L13.04,-0.04 L0.8,-0.04 L0.8,16.4 Z" id="Fill-22" fill="#FFFFFF" mask="url(#mask-16)"></path>
            </g>
            <g id="Group-27" transform="translate(167.000000, 93.000000)">
                <mask id="mask-18" fill="white">
                    <use xlink:href="#path-17"></use>
                </mask>
                <g id="Clip-26"></g>
                <path d="M0.52,16.04 L15.52,16.04 L15.52,-0.04 L0.52,-0.04 L0.52,16.04 Z" id="Fill-25" fill="#FFFFFF" mask="url(#mask-18)"></path>
            </g>
            <g id="Group-30" transform="translate(190.000000, 92.000000)">
                <mask id="mask-20" fill="white">
                    <use xlink:href="#path-19"></use>
                </mask>
                <g id="Clip-29"></g>
                <path d="M-0.04,17.04 L13.4,17.04 L13.4,0.96 L-0.04,0.96 L-0.04,17.04 Z" id="Fill-28" fill="#FFFFFF" mask="url(#mask-20)"></path>
            </g>
            <g id="Group-33" transform="translate(211.000000, 93.000000)">
                <mask id="mask-22" fill="white">
                    <use xlink:href="#path-21"></use>
                </mask>
                <g id="Clip-32"></g>
                <path d="M0.8,16.04 L10.76,16.04 L10.76,0.32 L0.8,0.32 L0.8,16.04 Z" id="Fill-31" fill="#FFFFFF" mask="url(#mask-22)"></path>
            </g>
            <g id="Group-36" transform="translate(228.000000, 93.000000)">
                <mask id="mask-24" fill="white">
                    <use xlink:href="#path-23"></use>
                </mask>
                <g id="Clip-35"></g>
                <path d="M0.48,16.28 L10.8,16.28 L10.8,0.08 L0.48,0.08 L0.48,16.28 Z" id="Fill-34" fill="#FFFFFF" mask="url(#mask-24)"></path>
            </g>
            <g id="Group-39" transform="translate(257.000000, 93.000000)">
                <mask id="mask-26" fill="white">
                    <use xlink:href="#path-25"></use>
                </mask>
                <g id="Clip-38"></g>
                <path d="M0.52,16.04 L10.48,16.04 L10.48,0.32 L0.52,0.32 L0.52,16.04 Z" id="Fill-37" fill="#FFFFFF" mask="url(#mask-26)"></path>
            </g>
            <g id="Group-42" transform="translate(274.000000, 93.000000)">
                <mask id="mask-28" fill="white">
                    <use xlink:href="#path-27"></use>
                </mask>
                <g id="Clip-41"></g>
                <path d="M0.68,16.28 L16.88,16.28 L16.88,0.08 L0.68,0.08 L0.68,16.28 Z" id="Fill-40" fill="#FFFFFF" mask="url(#mask-28)"></path>
            </g>
            <g id="Group-45" transform="translate(295.000000, 93.000000)">
                <mask id="mask-30" fill="white">
                    <use xlink:href="#path-29"></use>
                </mask>
                <g id="Clip-44"></g>
                <path d="M0.56,16.4 L14,16.4 L14,0.32 L0.56,0.32 L0.56,16.4 Z" id="Fill-43" fill="#FFFFFF" mask="url(#mask-30)"></path>
            </g>
            <g id="Group-48" transform="translate(317.000000, 93.000000)">
                <mask id="mask-32" fill="white">
                    <use xlink:href="#path-31"></use>
                </mask>
                <g id="Clip-47"></g>
                <path d="M0.4,16.04 L10.24,16.04 L10.24,0.32 L0.4,0.32 L0.4,16.04 Z" id="Fill-46" fill="#FFFFFF" mask="url(#mask-32)"></path>
            </g>
            <g id="Group-51" transform="translate(336.000000, 93.000000)">
                <mask id="mask-34" fill="white">
                    <use xlink:href="#path-33"></use>
                </mask>
                <g id="Clip-50"></g>
                <path d="M0,16.04 L9.96,16.04 L9.96,0.32 L0,0.32 L0,16.04 Z" id="Fill-49" fill="#FFFFFF" mask="url(#mask-34)"></path>
            </g>
            <g id="Group-54" transform="translate(365.000000, 93.000000)">
                <mask id="mask-36" fill="white">
                    <use xlink:href="#path-35"></use>
                </mask>
                <g id="Clip-53"></g>
                <path d="M0.28,16.04 L11.56,16.04 L11.56,0.32 L0.28,0.32 L0.28,16.04 Z" id="Fill-52" fill="#FFFFFF" mask="url(#mask-36)"></path>
            </g>
            <g id="Group-57" transform="translate(384.000000, 93.000000)">
                <mask id="mask-38" fill="white">
                    <use xlink:href="#path-37"></use>
                </mask>
                <g id="Clip-56"></g>
                <path d="M0,16.04 L9.84,16.04 L9.84,0.32 L0,0.32 L0,16.04 Z" id="Fill-55" fill="#FFFFFF" mask="url(#mask-38)"></path>
            </g>
            <g id="Group-60" transform="translate(401.000000, 92.000000)">
                <mask id="mask-40" fill="white">
                    <use xlink:href="#path-39"></use>
                </mask>
                <g id="Clip-59"></g>
                <path d="M0.76,17.04 L14.2,17.04 L14.2,0.96 L0.76,0.96 L0.76,17.04 Z" id="Fill-58" fill="#FFFFFF" mask="url(#mask-40)"></path>
            </g>
            <g id="Group-63" transform="translate(422.000000, 93.000000)">
                <mask id="mask-42" fill="white">
                    <use xlink:href="#path-41"></use>
                </mask>
                <g id="Clip-62"></g>
                <path d="M0.64,16.04 L15.64,16.04 L15.64,-0.04 L0.64,-0.04 L0.64,16.04 Z" id="Fill-61" fill="#FFFFFF" mask="url(#mask-42)"></path>
            </g>
            <g id="Group-66" transform="translate(151.000000, 0.000000)">
                <mask id="mask-44" fill="white">
                    <use xlink:href="#path-43"></use>
                </mask>
                <g id="Clip-65"></g>
                <path d="M-0.04,52.16 L82.64,52.16 L82.64,0.32 L-0.04,0.32 L-0.04,52.16 Z" id="Fill-64" fill="#FFFFFF" mask="url(#mask-44)"></path>
            </g>
            <g id="Group-69" transform="translate(235.000000, 1.000000)">
                <mask id="mask-46" fill="white">
                    <use xlink:href="#path-45"></use>
                </mask>
                <g id="Clip-68"></g>
                <path d="M0.2,40.36 L29.84,40.36 L29.84,0.4 L0.2,0.4 L0.2,40.36 Z" id="Fill-67" fill="#FFFFFF" mask="url(#mask-46)"></path>
            </g>
            <g id="Group-72" transform="translate(316.000000, 1.000000)">
                <mask id="mask-48" fill="white">
                    <use xlink:href="#path-47"></use>
                </mask>
                <g id="Clip-71"></g>
                <path d="M0.2,34.84 L51.2,34.84 L51.2,0.4 L0.2,0.4 L0.2,34.84 Z" id="Fill-70" fill="#FFFFFF" mask="url(#mask-48)"></path>
            </g>
            <g id="Group-75" transform="translate(278.000000, 1.000000)">
                <mask id="mask-50" fill="white">
                    <use xlink:href="#path-49"></use>
                </mask>
                <g id="Clip-74"></g>
                <path d="M0.4,37.96 L28.12,37.96 L28.12,0.4 L0.4,0.4 L0.4,37.96 Z" id="Fill-73" fill="#FFFFFF" mask="url(#mask-50)"></path>
            </g>
            <g id="Group-78" transform="translate(382.000000, 1.000000)">
                <mask id="mask-52" fill="white">
                    <use xlink:href="#path-51"></use>
                </mask>
                <g id="Clip-77"></g>
                <path d="M0.08,30.4 L54.68,30.4 L54.68,0.4 L0.08,0.4 L0.08,30.4 Z" id="Fill-76" fill="#FFFFFF" mask="url(#mask-52)"></path>
            </g>
            <g id="Group-81" transform="translate(153.000000, 50.000000)">
                <mask id="mask-54" fill="white">
                    <use xlink:href="#path-53"></use>
                </mask>
                <g id="Clip-80"></g>
                <path d="M0.84,32.64 L79.8,32.64 L79.8,0 L0.84,0 L0.84,32.64 Z" id="Fill-79" fill="#FFFFFF" mask="url(#mask-54)"></path>
            </g>
            <g id="Group-84" transform="translate(316.000000, 43.000000)">
                <mask id="mask-56" fill="white">
                    <use xlink:href="#path-55"></use>
                </mask>
                <g id="Clip-83"></g>
                <path d="M0.2,38.68 L52.88,38.68 L52.88,0.52 L0.2,0.52 L0.2,38.68 Z" id="Fill-82" fill="#FFFFFF" mask="url(#mask-56)"></path>
            </g>
            <g id="Group-87" transform="translate(255.000000, 46.000000)">
                <mask id="mask-58" fill="white">
                    <use xlink:href="#path-57"></use>
                </mask>
                <g id="Clip-86"></g>
                <path d="M0.6,36.52 L32.28,36.52 L32.28,0.28 L0.6,0.28 L0.6,36.52 Z" id="Fill-85" fill="#FFFFFF" mask="url(#mask-58)"></path>
            </g>
            <g id="Group-90" transform="translate(382.000000, 39.000000)">
                <mask id="mask-60" fill="white">
                    <use xlink:href="#path-59"></use>
                </mask>
                <g id="Clip-89"></g>
                <path d="M0.08,42.68 L55.64,42.68 L55.64,0.32 L0.08,0.32 L0.08,42.68 Z" id="Fill-88" fill="#FFFFFF" mask="url(#mask-60)"></path>
            </g>
            <g id="Group-93" transform="translate(113.000000, 59.000000)">
                <mask id="mask-62" fill="white">
                    <use xlink:href="#path-61"></use>
                </mask>
                <g id="Clip-92"></g>
                <path d="M0.52,22.68 L28.84,22.68 L28.84,0.72 L0.52,0.72 L0.52,22.68 Z" id="Fill-91" fill="#FFFFFF" mask="url(#mask-62)"></path>
            </g>
            <g id="Group-96" transform="translate(86.000000, 62.000000)">
                <mask id="mask-64" fill="white">
                    <use xlink:href="#path-63"></use>
                </mask>
                <g id="Clip-95"></g>
                <path d="M0.28,19.68 L12.88,19.68 L12.88,0.84 L0.28,0.84 L0.28,19.68 Z" id="Fill-94" fill="#FFFFFF" mask="url(#mask-64)"></path>
            </g>
            <g id="Group-99" transform="translate(86.000000, 1.000000)">
                <mask id="mask-66" fill="white">
                    <use xlink:href="#path-65"></use>
                </mask>
                <g id="Clip-98"></g>
                <path d="M0.28,59.8 L54.88,59.8 L54.88,0.4 L0.28,0.4 L0.28,59.8 Z" id="Fill-97" fill="#FFFFFF" mask="url(#mask-66)"></path>
            </g>
            <g id="Group-102" transform="translate(0.000000, 1.000000)">
                <mask id="mask-68" fill="white">
                    <use xlink:href="#path-67"></use>
                </mask>
                <g id="Clip-101"></g>
                <path d="M0.36,80.68 L75.12,80.68 L75.12,0.52 L0.36,0.52 L0.36,80.68 Z" id="Fill-100" fill="#FBC421" mask="url(#mask-68)"></path>
            </g>
            <g id="Group-105" transform="translate(0.000000, 87.000000)">
                <mask id="mask-70" fill="white">
                    <use xlink:href="#path-69"></use>
                </mask>
                <g id="Clip-104"></g>
                <path d="M0.36,2 L437.76,2 L437.76,-0.04 L0.36,-0.04 L0.36,2 Z" id="Fill-103" fill="#FFFFFF" mask="url(#mask-70)"></path>
            </g>
        </g>
    </g>
</svg>